<?xml version="1.0" encoding="utf-8"?>
<!-- Svg Vector Icons : http://www.onlinewebfonts.com/icon -->
<!DOCTYPE svg PUBLIC "-//W3C//DTD SVG 1.1//EN" "http://www.w3.org/Graphics/SVG/1.1/DTD/svg11.dtd">
<svg version="1.1" xmlns="http://www.w3.org/2000/svg" xmlns:xlink="http://www.w3.org/1999/xlink" x="0px" y="0px" viewBox="0 0 1000 1000" enable-background="new 0 0 1000 1000" xml:space="preserve">
<metadata> Svg Vector Icons : http://www.onlinewebfonts.com/icon </metadata>
<g><path d="M749.8,993.3H250.2C117.8,993.3,10,884.8,10,751.4V248.6C10,115.2,117.8,6.7,250.2,6.7h499.6C882.2,6.7,990,115.2,990,248.6v502.9C990,884.8,882.2,993.3,749.8,993.3z M250.2,69.8c-97.9,0-177.6,80.2-177.6,178.7v502.9c0,98.6,79.6,178.7,177.6,178.7h499.6c97.9,0,177.6-80.2,177.6-178.7V248.6c0-98.5-79.7-178.7-177.6-178.7H250.2z"/><path d="M958.6,723.9c-7.1,0-14.2-2.4-20-7.3l-207.3-174l-170.9,172c-11.7,11.8-32.6,11.8-44.3,0l-245.4-247L63.5,676.2c-12.2,12.3-32.1,12.3-44.3,0c-12.2-12.3-12.2-32.3,0-44.6l229.3-230.9c12.2-12.3,32.1-12.3,44.3,0l245.4,247l169-170.1c11.4-11.6,29.8-12.4,42.2-1.9l229.3,192.4c13.3,11.1,15.1,31,4,44.4C976.5,720.1,967.6,723.9,958.6,723.9z"/><path d="M633.8,416.1c-70,0-126.9-57.3-126.9-127.7c0-70.4,56.9-127.7,126.9-127.7c70,0,126.9,57.3,126.9,127.7C760.7,358.8,703.7,416.1,633.8,416.1z M633.8,223.7c-35.4,0-64.2,29-64.2,64.6c0,35.6,28.8,64.6,64.2,64.6c35.4,0,64.2-29,64.2-64.6C698,252.7,669.2,223.7,633.8,223.7z"/></g>
</svg>