<?xml version="1.0" encoding="utf-8"?>
<!-- Generator: Adobe Illustrator 26.2.1, SVG Export Plug-In . SVG Version: 6.00 Build 0)  -->
<svg version="1.1" id="a" xmlns="http://www.w3.org/2000/svg" xmlns:xlink="http://www.w3.org/1999/xlink" x="0px" y="0px"
	 viewBox="0 0 36.8 17.6" style="enable-background:new 0 0 36.8 17.6;" xml:space="preserve">
<style type="text/css">
	.st0{fill:none;stroke:#000000;stroke-miterlimit:10;}
</style>
<path d="M35,10.6c0,0,1.4-1,1.3-2.2V8.2c-0.1-0.4-0.2-0.7-0.5-0.9l-0.7-0.6c0,0,0,0.6,0,0.8v2.2C35,10.1,35,10.6,35,10.6z"/>
<path class="st0" d="M29.7,16.9H4.9c-2.3,0-4.1-1.9-4.1-4.1V4.9c0-2.3,1.9-4.1,4.1-4.1h24.8c2.3,0,4.1,1.9,4.1,4.1v7.9
	C33.9,15.1,32,16.9,29.7,16.9z"/>
<path d="M29.1,15.5H5.4c-1.6,0-2.8-1.3-2.8-2.8V5c0-1.6,1.3-2.8,2.8-2.8h23.7c1.6,0,2.8,1.3,2.8,2.8v7.8
	C31.9,14.3,30.6,15.5,29.1,15.5z"/>
</svg>
