<?xml version="1.0" encoding="utf-8"?>
<!-- Generator: Adobe Illustrator 26.2.1, SVG Export Plug-In . SVG Version: 6.00 Build 0)  -->
<svg version="1.1" id="a" xmlns="http://www.w3.org/2000/svg" xmlns:xlink="http://www.w3.org/1999/xlink" x="0px" y="0px"
	 viewBox="0 0 36.8 17.6" style="enable-background:new 0 0 36.8 17.6;" xml:space="preserve">
<style type="text/css">
	.st0{fill:none;stroke:#000000;stroke-miterlimit:10;}
	.st1{fill:#E40735;}
</style>
<path d="M35.3,10.3c0,0,1.4-1,1.3-2.2V7.9c-0.1-0.4-0.2-0.7-0.5-0.9l-0.7-0.6c0,0,0,0.6,0,0.8v2.2C35.3,9.8,35.3,10.3,35.3,10.3z"/>
<path class="st0" d="M29.7,16.6h-24c-2.5,0-4.5-2-4.5-4.5V5.5C1.2,3,3.2,1,5.7,1h24c2.5,0,4.5,2,4.5,4.5v6.6
	C34.1,14.6,32.1,16.6,29.7,16.6z"/>
<path class="st1" d="M5.5,15.1L5.5,15.1c-1.6,0-2.9-1.3-2.9-2.8V4.9c0-1.5,1.3-2.8,2.8-2.8h0c1.5,0,2.8,1.3,2.8,2.8v7.4
	C8.3,13.9,7,15.1,5.5,15.1z"/>
</svg>
