<?xml version="1.0" encoding="utf-8"?>
<!-- Generator: Adobe Illustrator 26.2.1, SVG Export Plug-In . SVG Version: 6.00 Build 0)  -->
<svg version="1.1" id="a" xmlns="http://www.w3.org/2000/svg" xmlns:xlink="http://www.w3.org/1999/xlink" x="0px" y="0px"
	 viewBox="0 0 36.8 17.6" style="enable-background:new 0 0 36.8 17.6;" xml:space="preserve">
<style type="text/css">
	.st0{fill:none;stroke:#000000;stroke-miterlimit:10;}
</style>
<path d="M35.3,10.3c0,0,1.4-1,1.3-2.2V7.9c-0.1-0.4-0.2-0.7-0.5-0.9l-0.7-0.6c0,0,0,0.6,0,0.8v2.2C35.3,9.8,35.3,10.3,35.3,10.3z"/>
<path class="st0" d="M28.6,16.6H6.4c-2.9,0-5.2-2.3-5.2-5.2V6.1c0-2.9,2.3-5.2,5.2-5.2h22.2c2.9,0,5.2,2.3,5.2,5.2v5.4
	C33.7,14.3,31.4,16.6,28.6,16.6z"/>
<path d="M10.6,14.7H7c-2,0-3.6-1.6-3.6-3.6V6.4c0-2,1.6-3.6,3.6-3.6h3.6c2,0,3.6,1.6,3.6,3.6v4.7C14.3,13.1,12.6,14.7,10.6,14.7z"/>
</svg>
