<?xml version="1.0" encoding="utf-8"?>
<!-- Generator: Adobe Illustrator 26.2.1, SVG Export Plug-In . SVG Version: 6.00 Build 0)  -->
<svg version="1.1" id="a" xmlns="http://www.w3.org/2000/svg" xmlns:xlink="http://www.w3.org/1999/xlink" x="0px" y="0px"
	 viewBox="0 0 36.8 17.6" style="enable-background:new 0 0 36.8 17.6;" xml:space="preserve">
<style type="text/css">
	.st0{fill:none;stroke:#000000;stroke-miterlimit:10;}
</style>
<path d="M35.4,10c0,0,1.4-1,1.3-2.2V7.6c-0.1-0.4-0.2-0.7-0.5-0.9l-0.7-0.6c0,0,0,0.6,0,0.8v2.2C35.4,9.5,35.4,10,35.4,10z"/>
<path class="st0" d="M29,16.6H5.7c-2.6,0-4.7-2.1-4.7-4.7V5.5c0-2.6,2.1-4.7,4.7-4.7H29c2.6,0,4.7,2.1,4.7,4.7v6.3
	C33.7,14.5,31.6,16.6,29,16.6z"/>
<path d="M15.1,15.1H6.3c-2,0-3.6-1.6-3.6-3.6V6.2c0-2,1.6-3.6,3.6-3.6h8.8c2,0,3.6,1.6,3.6,3.6v5.3C18.7,13.5,17.1,15.1,15.1,15.1z"
	/>
</svg>
