<?xml version="1.0" encoding="utf-8"?>
<!-- Generator: Adobe Illustrator 26.2.1, SVG Export Plug-In . SVG Version: 6.00 Build 0)  -->
<svg version="1.1" id="a" xmlns="http://www.w3.org/2000/svg" xmlns:xlink="http://www.w3.org/1999/xlink" x="0px" y="0px"
	 viewBox="0 0 36.8 17.6" style="enable-background:new 0 0 36.8 17.6;" xml:space="preserve">
<style type="text/css">
	.st0{fill:none;stroke:#000000;stroke-miterlimit:10;}
</style>
<path d="M35.2,10.3c0,0,1.4-1,1.3-2.2V7.9C36.4,7.5,36.3,7.2,36,7l-0.7-0.6c0,0,0,0.6,0,0.8v2.2C35.2,9.8,35.2,10.3,35.2,10.3z"/>
<path class="st0" d="M28.8,16.7h-23C3.1,16.7,1,14.6,1,12V5.5c0-2.6,2.1-4.7,4.7-4.7h23c2.6,0,4.7,2.1,4.7,4.7V12
	C33.5,14.6,31.4,16.7,28.8,16.7z"/>
<path d="M22.7,15.3H6.4c-2.2,0-4-1.8-4-4V6.4c0-2.2,1.8-4,4-4h16.3c2.2,0,4,1.8,4,4v4.9C26.7,13.5,24.9,15.3,22.7,15.3z"/>
</svg>
