<?xml version="1.0" encoding="utf-8"?>
<!-- Generator: Adobe Illustrator 26.2.1, SVG Export Plug-In . SVG Version: 6.00 Build 0)  -->
<svg version="1.1" id="Layer_1" xmlns="http://www.w3.org/2000/svg" xmlns:xlink="http://www.w3.org/1999/xlink" x="0px" y="0px"
	 viewBox="0 0 1024 1024" style="enable-background:new 0 0 1024 1024;" xml:space="preserve">
<style type="text/css">
	.st0{fill:#0079F5;stroke:#000000;stroke-miterlimit:10;}
	.st1{fill:#FFFFFF;}
</style>
<circle class="st0" cx="511.7" cy="511.7" r="511.7"/>
<path class="st1" d="M603.6,513.7c0,35.3-19.3,69-49.4,86.6c-2.5,1.7-5.9,2.5-8.4,2.5c-5.9,0-11.7-3.4-14.2-8.4
	c-5-8.4-1.7-18.5,5.9-22.7c20.1-11.8,32.6-33.6,32.6-58c0-37-30.1-67.3-67-67.3s-67,30.3-67,67.3c0,23.6,12.6,46.3,32.6,58
	c8.4,5,10.9,15.1,5.9,22.7c-5,8.4-15.1,10.9-22.6,5.9c-30.1-17.7-49.4-51.3-49.4-86.6c0-55.5,45.2-100.9,100.4-100.9
	S603.6,458.2,603.6,513.7z M503.2,328.6c-101.3,0-184.1,83.3-184.1,185.1c0,61.4,30.1,118.6,80.4,153.1c2.5,1.7,5.9,2.5,9.2,2.5
	c5,0,10.9-2.5,14.2-7.6c5-7.6,3.3-18.5-4.2-23.6c-41.9-27.8-66.1-74-66.1-124.5c0-83.3,67.8-151.4,150.7-151.4
	s150.7,68.1,150.7,151.4c0,49.6-25.1,96.7-66.1,124.5c-7.5,5-10,16-4.2,23.6c5,7.6,15.9,10.1,23.4,4.2
	c50.2-34.5,80.4-90.8,80.4-152.3C687.3,411.9,604.4,328.6,503.2,328.6z M503.2,244.5c-147.3,0-267.9,121.1-267.9,269.2
	c0,80.8,36,156.5,97.9,207.8c7.5,5.9,17.6,5,23.4-2.5c5.9-7.6,5-17.7-2.5-23.6c-54.4-44.6-85.4-111-85.4-181.7
	c0-129.5,105.5-235.5,234.4-235.5s234.4,106,234.4,235.5c0,71.5-31.8,138-87.1,182.5c-7.5,5.9-8.4,16.8-2.5,23.6
	c3.3,4.2,8.4,5.9,13.4,5.9c3.3,0,7.5-0.8,10.9-3.4c62.8-50.5,98.8-127,98.8-208.6C771,365.6,650.5,244.5,503.2,244.5z M503.2,160.4
	c-194.2,0-351.6,158.1-351.6,353.3c0,95.9,36.8,185.1,104.6,250.7c6.7,6.7,17.6,6.7,23.4,0c6.7-6.7,6.7-17.7,0-23.6
	c-61.1-59.7-94.6-140.5-94.6-227.1C185.1,337,327.4,194,503.2,194s318.1,143,318.1,319.7c0,86.6-33.5,167.4-95.4,228.8
	c-6.7,6.7-6.7,16.8,0,23.6c3.3,3.4,7.5,5,11.7,5c4.2,0,8.4-1.7,11.7-5c67.8-67.3,105.5-157.3,105.5-252.4
	C854.7,318.5,697.3,160.4,503.2,160.4z M503.2,488.5c-14.2,0-25.1,10.9-25.1,25.2c0,15.1,8.4,28.6,25.1,42.1
	c16.7-13.5,25.1-26.9,25.1-42.1C528.3,499.4,517.4,488.5,503.2,488.5L503.2,488.5z"/>
</svg>
