<?xml version="1.0" encoding="utf-8"?>
<!-- Generator: Adobe Illustrator 26.2.1, SVG Export Plug-In . SVG Version: 6.00 Build 0)  -->
<svg version="1.1" id="Layer_1" xmlns="http://www.w3.org/2000/svg" xmlns:xlink="http://www.w3.org/1999/xlink" x="0px" y="0px"
	 viewBox="0 0 1024 1024" style="enable-background:new 0 0 1024 1024;" xml:space="preserve">
<style type="text/css">
	.st0{fill:#0079F5;}
	.st1{fill:#FFFFFF;}
</style>
<ellipse class="st0" cx="511.7" cy="512.9" rx="513.3" ry="509.8"/>
<path class="st1" d="M671.5,385L512.9,228.7c-12.7-12.5-34.2-3.5-34.2,14.3v196.1l-100.1-94c-1.4-1.4-3.7-1.3-5.1,0.1L345,375.7
	c-1.4,1.4-1.3,3.7,0.1,5.1l133.6,125.4v18.8L345.2,649.2c-1.4,1.4-1.5,3.7-0.1,5.1l28.4,30.5c1.4,1.4,3.7,1.5,5.1,0.1l100.2-93.2
	v198.9c0,17.8,21.5,26.9,34.2,14.3l158.5-156c7.9-7.8,7.9-20.7,0-28.7l-90.4-89c-7.9-7.8-7.9-20.7,0-28.7l90.4-89.1
	C679.6,405.8,679.6,392.8,671.5,385z M527.6,311.9l87.6,86.3l-87,80.9l-0.5-0.5V311.9L527.6,311.9z M527.6,555.3l1.7-1.5l86.7,81.3
	l-88.2,86.9V555.3H527.6z"/>
</svg>
