<?xml version="1.0" encoding="utf-8"?>
<!-- Generator: Adobe Illustrator 26.2.1, SVG Export Plug-In . SVG Version: 6.00 Build 0)  -->
<svg version="1.1" id="Layer_1" xmlns="http://www.w3.org/2000/svg" xmlns:xlink="http://www.w3.org/1999/xlink" x="0px" y="0px"
	 viewBox="0 0 84.2 66.6" style="enable-background:new 0 0 84.2 66.6;" xml:space="preserve">
<style type="text/css">
	.st0{fill:none;stroke:#212121;stroke-width:2;stroke-miterlimit:10;}
	.st1{fill:#212121;stroke:#212121;stroke-miterlimit:10;}
	.st2{fill:#212121;stroke:#212121;stroke-width:2;stroke-miterlimit:10;}
</style>
<path class="st0" d="M69.2,29.5H15.3c-7.8,0-14.1-6.3-14.1-14.1v0c0-7.8,6.3-14.1,14.1-14.1h53.9c7.8,0,14.1,6.3,14.1,14.1v0
	C83.3,23.2,77,29.5,69.2,29.5z"/>
<path class="st1" d="M68,35.3H16.7c-8.5,0-15.3,6.9-15.3,15.3S8.2,66,16.7,66H68c8.5,0,15.3-6.9,15.3-15.3S76.5,35.3,68,35.3z
	 M67.4,63.6c-7.2,0-13-5.8-13-13c0-7.2,5.8-13,13-13c7.2,0,13,5.8,13,13C80.5,57.8,74.6,63.6,67.4,63.6z"/>
<ellipse class="st2" cx="15.2" cy="15.3" rx="10.4" ry="10.5"/>
</svg>
