<?xml version="1.0" encoding="utf-8"?>
<!-- Generator: Adobe Illustrator 26.2.1, SVG Export Plug-In . SVG Version: 6.00 Build 0)  -->
<svg version="1.1" id="Layer_1" xmlns="http://www.w3.org/2000/svg" xmlns:xlink="http://www.w3.org/1999/xlink" x="0px" y="0px"
	 viewBox="0 0 1024 1024" style="enable-background:new 0 0 1024 1024;" xml:space="preserve">
<style type="text/css">
	.st0{fill:#0079F5;}
	.st1{fill:#FFFFFF;}
</style>
<circle class="st0" cx="511.7" cy="511.7" r="511.7"/>
<path class="st1" d="M501.7,232.3c-133.9,0-267.8,57.4-364,150.8c-5.4,5.1-5.6,13.8-0.5,19.5l43.9,47.7c5.1,5.6,13.6,5.8,19.1,0.5
	c38.3-36.9,82-66.3,130.3-87.1c54.2-23.6,111.9-35.4,171.4-35.4s117.2,12,171.4,35.4c48.3,21,92,50.2,130.3,87.1
	c5.4,5.3,14,5.1,19.1-0.5l43.9-47.7c5.1-5.5,4.9-14.2-0.5-19.5C769.5,289.6,635.6,232.3,501.7,232.3z"/>
<path class="st1" d="M267.1,542.3l47,48.3c5.1,5.1,13.1,5.5,18.4,0.5c46.5-42.9,106.1-66.4,169.1-66.4s122.6,23.4,169.1,66.4
	c5.3,5,13.3,4.6,18.4-0.5l47-48.3c5.4-5.6,5.3-14.7-0.5-20C673.9,464.4,591.6,429,501.4,429s-172.5,35.4-234.1,93.3
	C261.8,527.6,261.7,536.6,267.1,542.3L267.1,542.3z M501.7,622c-38.4,0-73.3,16.7-97.6,43.6c-4.9,5.5-4.8,13.8,0.3,19.1l87.7,90
	c5.3,5.5,13.8,5.5,19.1,0l87.7-90c5.1-5.3,5.3-13.7,0.3-19.1C575,638.9,540.2,622,501.7,622L501.7,622z"/>
</svg>
