<?xml version="1.0" encoding="utf-8"?>
<!-- Generator: Adobe Illustrator 26.2.1, SVG Export Plug-In . SVG Version: 6.00 Build 0)  -->
<svg version="1.1" id="Layer_1" xmlns="http://www.w3.org/2000/svg" xmlns:xlink="http://www.w3.org/1999/xlink" x="0px" y="0px"
	 viewBox="0 0 1024 1024" style="enable-background:new 0 0 1024 1024;" xml:space="preserve">
<style type="text/css">
	.st0{fill:#FFFFFF;}
	.st1{fill:#1A8EBC;}
</style>
<ellipse class="st0" cx="511.2" cy="512.7" rx="511.5" ry="513.2"/>
<path class="st1" d="M246.5,814.7h531.6c26.7,0,48.3-21.8,48.3-48.7V473.7H198.2V766C198.2,793,219.8,814.7,246.5,814.7z
	 M778.1,327.6H766v-12.2c0-6.7-5.4-12.2-12.1-12.2h-48.3c-6.6,0-12.1,5.5-12.1,12.2v12.2h-42.3v-48.7c0-26.8-21.7-48.7-48.3-48.7
	H421.7c-26.6,0-48.3,21.9-48.3,48.7v48.7h-42.3v-12.2c0-6.7-5.4-12.2-12.1-12.2h-48.3c-6.6,0-12.1,5.5-12.1,12.2v12.2h-12.1
	c-26.7,0-48.3,21.8-48.3,48.7v60.9h628.3v-60.9C826.5,349.4,804.9,327.6,778.1,327.6z M609,327.6H415.7V285
	c0-6.7,5.4-12.2,12.1-12.2h169.1c6.6,0,12.1,5.5,12.1,12.2V327.6z"/>
</svg>
