<?xml version="1.0" encoding="utf-8"?>
<!-- Generator: Adobe Illustrator 26.2.1, SVG Export Plug-In . SVG Version: 6.00 Build 0)  -->
<svg version="1.1" id="Layer_1" xmlns="http://www.w3.org/2000/svg" xmlns:xlink="http://www.w3.org/1999/xlink" x="0px" y="0px"
	 viewBox="0 0 581.3 365" style="enable-background:new 0 0 581.3 365;" xml:space="preserve">
<style type="text/css">
	.st0{fill:#AF599E;stroke:#622482;stroke-width:20;stroke-miterlimit:10;}
	.st1{fill:#AF589E;stroke:#622482;stroke-width:20;stroke-miterlimit:10;}
	.st2{fill:#622482;stroke:#622482;stroke-width:20;stroke-miterlimit:10;}
</style>
<path class="st0" d="M379,322.1H185c-4.4,0-8-3.6-8-8l0,0c0-4.4,3.6-8,8-8h194c4.4,0,8,3.6,8,8l0,0C387,318.5,383.4,322.1,379,322.1
	z"/>
<path class="st1" d="M560.4,323.5h-106c-5,0-9-4-9-9v0c0-5,4-9,9-9h106c5,0,9,4,9,9v0C569.4,319.4,565.3,323.5,560.4,323.5z"/>
<path class="st2" d="M128.5,324.7h-101c-4.4,0-8-3.6-8-8v0c0-4.4,3.6-8,8-8h101c4.4,0,8,3.6,8,8v0
	C136.5,321.1,133,324.7,128.5,324.7z"/>
<path class="st2" d="M287,210.8v-182c0-6.6,5.4-12,12-12l0,0c6.6,0,12,5.4,12,12v182c0,6.6-5.4,12-12,12l0,0
	C292.4,222.8,287,217.4,287,210.8z"/>
<path class="st2" d="M163.2,232.9L38.2,99.3c-4.9-5.2-4.6-13.5,0.6-18.4l0,0c5.2-4.9,13.5-4.6,18.4,0.6l125,133.7
	c4.9,5.2,4.6,13.5-0.6,18.4l0,0C176.4,238.5,168.2,238.2,163.2,232.9z"/>
<path class="st2" d="M405.6,208L538.5,75.1c4.3-4.3,11.3-4.3,15.6,0v0c4.3,4.3,4.3,11.3,0,15.6L421.1,223.6
	c-4.3,4.3-11.3,4.3-15.6,0v0C401.3,219.3,401.3,212.3,405.6,208z"/>
</svg>
