<?xml version="1.0" encoding="utf-8"?>
<!-- Generator: Adobe Illustrator 26.2.1, SVG Export Plug-In . SVG Version: 6.00 Build 0)  -->
<svg version="1.1" id="Layer_1" xmlns="http://www.w3.org/2000/svg" xmlns:xlink="http://www.w3.org/1999/xlink" x="0px" y="0px"
	 viewBox="0 0 1024 1024" style="enable-background:new 0 0 1024 1024;" xml:space="preserve">
<style type="text/css">
	.st0{fill:#F59B00;}
	.st1{fill:#FFFFFF;}
</style>
<path class="st0" d="M511,1023.4L511,1023.4c-282.2,0-511-228.8-511-511v-1.5c0-282.2,228.8-511,511-511h0
	c282.2,0,511,228.8,511,511v1.5C1021.9,794.6,793.2,1023.4,511,1023.4z"/>
<path class="st1" d="M704,384c-15.4,0-28,12.6-28,28v138c0,90.4-73.6,164-164,164s-164-73.6-164-164V412c0-15.4-12.6-28-28-28
	s-28,12.6-28,28v138c0,111.8,83.8,204.4,192,218.2V872h-72c-15.4,0-28,12.6-28,28s12.6,28,28,28h200c15.4,0,28-12.6,28-28
	s-12.6-28-28-28h-72V768.2C648.2,754.4,732,661.8,732,550V412C732,396.6,719.4,384,704,384z"/>
<path class="st1" d="M512,672c70.4,0,128-57.6,128-128V224c0-70.4-57.6-128-128-128s-128,57.6-128,128v320
	C384,614.4,441.6,672,512,672z"/>
</svg>
