<?xml version="1.0" encoding="utf-8"?>
<!-- Generator: Adobe Illustrator 26.2.1, SVG Export Plug-In . SVG Version: 6.00 Build 0)  -->
<svg version="1.1" id="Layer_1" xmlns="http://www.w3.org/2000/svg" xmlns:xlink="http://www.w3.org/1999/xlink" x="0px" y="0px"
	 viewBox="0 0 1024 1024" style="enable-background:new 0 0 1024 1024;" xml:space="preserve">
<style type="text/css">
	.st0{fill:#E90000;}
	.st1{fill:#FFFFFF;}
</style>
<path class="st0" d="M890.3,1023.4H133.2C59.6,1023.4,0,963.8,0,890.2V133.1C0,59.5,59.6-0.1,133.2-0.1h757.2
	c73.5,0,133.2,59.6,133.2,133.2v757.2C1023.5,963.8,963.9,1023.4,890.3,1023.4z"/>
<path class="st1" d="M812.6,96.4c-9.4,1.8-404,78.4-412.4,80c-8.4,1.6-16.2,7.2-16.2,16v480.2c0,3.2-0.2,14.4-4.8,23.4
	c-6.2,11.8-17,20.4-32.2,25.4c-6.6,2.2-15.6,4.2-26.2,6.6C272.6,738.8,192,757.2,192,831.6c0,62.2,44.8,90.2,83.4,95
	c4.2,0.6,9,1.4,14.2,1.4c13.4,0,72-6.6,102.4-26.4c22-14.4,48.2-42.8,48.2-95.6V381c0-7.6,5.4-14.2,12.8-15.6L757,304
	c10-2,19.2,5.6,19.2,15.6v261.8c0,8.2-0.4,17.8-5,26.8c-6.2,11.8-17,20.4-32.4,25.4c-6.6,2.2-17.6,4.2-28.2,6.6
	c-48.2,10.8-128.8,29-128.8,103.4c0,67.4,50.8,94.4,83.6,96.6c13,0.8,22.4,0.6,38.8-1.8s47-11,73-26c35.8-20.6,55-53.6,55-96.4
	V111.8C832,103,824.6,94,812.6,96.4z"/>
</svg>
