<?xml version="1.0" encoding="utf-8"?>
<!-- Generator: Adobe Illustrator 26.2.1, SVG Export Plug-In . SVG Version: 6.00 Build 0)  -->
<svg version="1.1" id="Layer_1" xmlns="http://www.w3.org/2000/svg" xmlns:xlink="http://www.w3.org/1999/xlink" x="0px" y="0px"
	 viewBox="0 0 442.3 342.9" style="enable-background:new 0 0 442.3 342.9;" xml:space="preserve">
<style type="text/css">
	.st0{fill:#FFFFFF;stroke:#612581;stroke-width:11;stroke-miterlimit:10;}
</style>
<path class="st0" d="M349,247H46c-21,0-38-17-38-38V46C8,25,25,8,46,8h303c21,0,38,17,38,38v163C387,230,370,247,349,247z"/>
<path class="st0" d="M393,335c22.6,0,41-18.4,41-41V102c0-22.6-18.4-41-41-41H122c-22.6,0-41,18.4-41,41v192c0,22.6,18.4,41,41,41
	H393z"/>
</svg>
