<?xml version="1.0" encoding="utf-8"?>
<!-- Generator: Adobe Illustrator 26.2.1, SVG Export Plug-In . SVG Version: 6.00 Build 0)  -->
<svg version="1.1" id="Layer_1" xmlns="http://www.w3.org/2000/svg" xmlns:xlink="http://www.w3.org/1999/xlink" x="0px" y="0px"
	 viewBox="0 0 599.9 599.9" style="enable-background:new 0 0 599.9 599.9;" xml:space="preserve">
<style type="text/css">
	.st0{fill:#FFFFFF;}
</style>
<path class="st0" d="M396.8,56.5c0,0-36.1,0.9-69.2,34S300,168.2,300,168.2s32.8,6,67.8-29S396.8,56.5,396.8,56.5z M303.8,196.5
	c-24.4-0.2-39.4-21.2-81-21.2c-37.4,0-74.9,24.1-90.9,47.5c-15.9,23.2-29.6,48.8-29.6,100.5s24.9,140.8,86.2,201
	c10.5,10.3,24.4,18.1,40.2,18.6c28.5,0.9,46-20.5,82-20.5s46.8,20.5,79.3,20.5c14.8,0,31.6-6.7,48-24.1
	c21-22.3,47.1-64.9,60.3-105.7c0,0-66.5-25.7-65.7-99.7c0.7-61.3,52.8-91.5,52.8-91.5s-30.4-48.5-95.1-48.5
	C345.7,173.7,325.7,196.6,303.8,196.5z"/>
</svg>
